<?xml version="1.0" encoding="UTF-8" standalone="no"?>
<!-- Created with Inkscape (http://www.inkscape.org/) -->

<svg
   xmlns:dc="http://purl.org/dc/elements/1.1/"
   xmlns:cc="http://creativecommons.org/ns#"
   xmlns:rdf="http://www.w3.org/1999/02/22-rdf-syntax-ns#"
   xmlns:svg="http://www.w3.org/2000/svg"
   xmlns="http://www.w3.org/2000/svg"
   xmlns:sodipodi="http://sodipodi.sourceforge.net/DTD/sodipodi-0.dtd"
   xmlns:inkscape="http://www.inkscape.org/namespaces/inkscape"
   width="512"
   height="512"
   viewBox="0 0 135.46666 135.46667"
   version="1.1"
   id="svg3943"
   sodipodi:docname="appicon.svg"
   inkscape:version="0.92.5 (2060ec1f9f, 2020-04-08)"
   inkscape:export-filename="/home/james/Dropbox/www/workouts/static/appicon.png"
   inkscape:export-xdpi="135.467"
   inkscape:export-ydpi="135.467">
  <defs
     id="defs3937" />
  <sodipodi:namedview
     id="base"
     pagecolor="#ffffff"
     bordercolor="#666666"
     borderopacity="1.0"
     inkscape:pageopacity="0.0"
     inkscape:pageshadow="2"
     inkscape:zoom="0.7"
     inkscape:cx="73.668259"
     inkscape:cy="369.98186"
     inkscape:document-units="px"
     inkscape:current-layer="layer2"
     showgrid="false"
     inkscape:showpageshadow="false"
     inkscape:window-width="2508"
     inkscape:window-height="1376"
     inkscape:window-x="52"
     inkscape:window-y="27"
     inkscape:window-maximized="1"
     units="px" />
  <metadata
     id="metadata3940">
    <rdf:RDF>
      <cc:Work
         rdf:about="">
        <dc:format>image/svg+xml</dc:format>
        <dc:type
           rdf:resource="http://purl.org/dc/dcmitype/StillImage" />
        <dc:title></dc:title>
      </cc:Work>
    </rdf:RDF>
  </metadata>
  <g
     inkscape:groupmode="layer"
     id="layer2"
     inkscape:label="Safe zone"
     style="display:none">
    <ellipse
       transform="translate(0,-161.53331)"
       style="opacity:1;fill:none;fill-opacity:1;stroke:#a4a4a4;stroke-width:0.64433414;stroke-linecap:round;stroke-linejoin:round;stroke-miterlimit:4;stroke-dasharray:0.64433418, 1.93300257;stroke-dashoffset:0;stroke-opacity:1"
       id="path4528"
       cx="67.732391"
       cy="229.26569"
       rx="53.865376"
       ry="53.867329" />
  </g>
  <g
     inkscape:label="Layer 1"
     inkscape:groupmode="layer"
     id="layer1"
     transform="translate(0,-161.53331)">
    <path
       style="fill:#d6d6d6;fill-opacity:1;stroke-width:0.28237447"
       d="M 97.035582,272.86458 V 270.4644 H 83.763976 70.492379 v 2.40018 2.40019 h 13.271597 13.271606 z m -60.426675,0.69753 c 3.027657,-0.31525 6.71198,-0.70064 8.187391,-0.85644 1.475404,-0.15579 3.889706,-0.40255 5.365118,-0.54835 4.210862,-0.41609 22.335452,-2.28872 30.07288,-3.10711 1.553062,-0.16427 4.030894,-0.4176 5.506297,-0.56295 10.190706,-1.00398 9.984403,-0.9714 11.087469,-1.75109 2.435802,-1.72176 2.075064,-5.68284 -0.645235,-7.08494 -0.808812,-0.41685 -1.370651,-0.47405 -3.175419,-0.32318 l -2.192727,0.18329 0.312418,-0.8063 c 0.171828,-0.44347 1.517737,-4.04655 2.990919,-8.00685 1.47317,-3.96031 3.672884,-9.86899 4.888259,-13.13042 1.215373,-3.26142 3.055853,-8.2171 4.089963,-11.01261 1.03411,-2.7955 2.26643,-6.10714 2.73848,-7.35919 l 0.85828,-2.27647 3.57193,-1.06847 c 1.98176,-0.59281 3.85477,-1.32977 4.20727,-1.65542 1.27248,-1.17552 0.58039,-3.31414 -1.21862,-3.76567 -0.73148,-0.18359 -0.72117,-0.20324 1.03761,-1.9778 1.50889,-1.52242 1.77642,-1.94303 1.77642,-2.79294 0,-1.33302 -0.89662,-2.23051 -2.22834,-2.23051 -0.91506,0 -1.41681,0.41435 -6.00674,4.96016 l -5.00827,4.96017 -2.11781,0.61949 c -1.164796,0.34072 -3.388499,1.00269 -4.941553,1.47103 -1.55306,0.46835 -3.713228,1.11642 -4.800375,1.44018 -2.436818,0.72571 -3.247302,1.39414 -3.247302,2.67815 0,1.10741 1.047764,2.33813 1.99056,2.33813 0.332404,0 2.950032,-0.71311 5.816956,-1.58468 2.86693,-0.87159 5.273164,-1.52412 5.347204,-1.45008 0.12332,0.12332 -1.008304,3.24418 -7.550939,20.82434 -1.242677,3.33907 -3.084711,8.29475 -4.093407,11.01261 -1.008704,2.71786 -2.164935,5.83103 -2.569401,6.91818 -0.404467,1.08714 -0.901815,2.11649 -1.105221,2.28745 -0.203398,0.17095 -1.356243,0.39339 -2.561877,0.49431 -2.292212,0.19185 -5.616909,0.52174 -10.38091,1.03001 -1.553062,0.1657 -4.030894,0.41947 -5.506305,0.56393 -2.594799,0.25408 -8.865949,0.90532 -17.648405,1.83273 -5.388466,0.56903 -14.423971,1.49271 -18.044755,1.84469 -1.564435,0.15209 -3.242861,0.49069 -3.809574,0.76855 -1.162819,0.57013 -2.277276,2.32837 -2.283607,3.6028 -0.0064,1.21962 0.833858,2.7127 1.942703,3.45345 1.20826,0.80718 2.179936,0.81422 9.348665,0.0678 z m 40.948482,-19.61954 c 1.01193,-0.52329 1.406222,-1.21703 1.406222,-2.47421 0,-0.76381 -1.087298,-2.66717 -5.294527,-9.26838 -2.911986,-4.56895 -5.485118,-8.56933 -5.718076,-8.88974 -0.307701,-0.42318 -6.942872,-5.82365 -10.386096,-8.45338 -0.177023,-0.1352 8.006926,-13.10053 8.268283,-13.09893 0.155307,8.1e-4 1.680129,1.66715 3.388499,3.70263 3.148466,3.75138 4.281997,4.73822 5.444664,4.74013 0.841005,0.002 10.779172,-3.25991 12.706668,-4.1698 2.433657,-1.14881 3.048356,-2.4057 1.846956,-3.77653 -0.70823,-0.80812 -1.683796,-0.76086 -7.237038,0.35051 -5.25818,1.05235 -5.432122,1.06892 -5.84308,0.55714 -0.232957,-0.29012 -2.011917,-2.40015 -3.953244,-4.68896 l -3.529679,-4.16146 -7.063632,-4.72023 c -3.884992,-2.59612 -7.468372,-4.92952 -7.963055,-5.18534 -1.490635,-0.77084 -0.917614,-0.89293 -12.646011,2.6947 -3.218616,0.98456 -4.949397,2.00599 -5.35544,3.16058 -0.246109,0.6998 -0.183972,0.88085 0.505968,1.4743 1.019927,0.8773 1.876981,0.87224 9.320995,-0.055 l 5.883388,-0.7329 2.387063,1.58855 c 1.559034,1.03751 2.317379,1.70782 2.186172,1.93237 -0.110484,0.18909 -2.330769,3.52519 -4.933965,7.41353 -2.603188,3.88836 -5.043912,7.70041 -5.423829,8.47124 -1.981092,4.01952 -0.874544,6.61093 4.092912,9.58512 1.292136,0.77364 4.487372,3.08799 7.100525,5.143 3.783008,2.97499 5.336629,4.41781 7.62411,7.08038 10.455062,12.16943 10.49125,12.20725 11.678642,12.20725 0.375027,0 1.053,-0.19192 1.506605,-0.42649 z M 42.517325,240.68421 c 0.693199,-0.35846 4.592581,-5.4062 4.961332,-6.42244 0.07556,-0.20827 -0.546639,-0.84965 -1.449677,-1.49436 -0.870142,-0.62122 -2.187092,-1.79017 -2.926555,-2.59764 l -1.344477,-1.46815 -1.853344,2.61453 -1.853351,2.61451 -5.87524,0.35841 c -8.664881,0.5286 -10.493283,0.78011 -11.55427,1.58937 -0.489489,0.37334 -0.968747,0.99267 -1.065023,1.37626 -0.219206,0.87336 0.204054,2.03021 0.871261,2.38136 1.517764,0.79877 7.886782,1.32714 17.111196,1.41953 3.181372,0.0318 4.369821,-0.0568 4.978148,-0.37138 z M 74.133806,198.7563 c 2.423683,-1.23647 3.999549,-4.24253 3.584558,-6.83775 -0.561496,-3.51137 -3.329716,-5.75323 -6.843139,-5.54193 -2.252342,0.13544 -4.127369,1.24872 -5.301363,3.14762 -1.086953,1.75811 -1.196261,4.47475 -0.251559,6.25211 1.753777,3.29951 5.621312,4.60746 8.811503,2.97995 z"
       id="path4526"
       inkscape:connector-curvature="0"
       sodipodi:nodetypes="ccccccccccscccccccccsccccccssscccccsscccccccscssccccccsscccccccscscccsccccsccccscscccccccccsccscccccccc" />
  </g>
</svg>
